<svg width="154" height="71" viewBox="0 0 154 71" fill="none" xmlns="http://www.w3.org/2000/svg">
<path fill-rule="evenodd" clip-rule="evenodd" d="M3.38013 13.0084C3.38013 10.8574 5.32628 9.11609 7.4773 9.11609C9.73074 9.11609 11.4719 10.8574 11.4719 13.0084C11.4719 15.2618 9.73074 17.1056 7.4773 17.1056C5.32628 17.1056 3.38013 15.2618 3.38013 13.0084ZM5.32618 13.0084C5.32618 14.34 6.35058 15.2618 7.4773 15.2618C8.70645 15.2618 9.73069 14.34 9.73069 13.0084C9.73069 11.9841 8.70645 10.8574 7.4773 10.8574C6.35058 10.8574 5.32618 11.9841 5.32618 13.0084Z" fill="white"/>
<path d="M135.514 2.25346C135.719 2.18517 135.787 1.94616 135.719 1.53644L135.514 0L126.398 5.01906L127.422 6.86277L135.514 2.25346Z" fill="white"/>
<path d="M37.5916 33.6994L41.9961 38.1038L46.4006 33.6994L41.9961 29.2949L37.5916 33.6994Z" fill="white"/>
<path d="M28.6802 33.6994L33.0847 38.1038L37.5915 33.6994L33.0847 29.2949L28.6802 33.6994Z" fill="white"/>
<path d="M153.337 17.4127C153.337 17.72 152.415 18.2322 149.137 20.3832C142.479 24.3779 134.182 25.4022 130.7 25.4022C127.934 25.4022 125.578 24.6852 125.578 22.4318C125.578 19.9735 129.573 18.437 131.724 17.9248C137.46 15.9787 140.328 15.2617 140.533 11.0621C140.533 10.2427 140.533 7.7844 140.328 6.96497C140.328 6.96497 139.304 9.21841 135.309 10.55L127.32 13.3155C122.71 14.852 120.15 18.2322 120.15 21.8172C120.15 26.4265 123.222 29.2945 127.524 30.5237C123.222 31.9577 119.125 32.3674 116.257 32.3674C110.931 32.3674 106.014 31.0358 102.122 27.3484C105.707 25.4022 109.497 23.0463 113.492 20.3832C113.901 20.1783 114.106 19.871 114.106 19.4613L113.697 14.6472C98.4345 24.5828 82.1483 32.5723 66.6814 32.5723C53.8778 32.5723 49.1661 25.812 47.937 23.8658L48.8587 23.2512C49.2684 23.0463 49.3709 22.739 49.3709 22.4318V17.1054L41.5863 21.3051V9.6281L36.0551 15.1593C25.6073 25.7095 16.696 32.5723 9.01383 32.5723C2.76564 32.5723 1.02432 28.68 0.409742 25.4022L0.204809 24.2755C0.204809 24.2755 0 25.6071 0 27.5532C0 32.0601 1.1267 39.435 8.29675 39.435C17.3105 39.435 25.6073 31.7529 31.6507 25.9144L38.8207 19.0516V29.1921L46.0932 24.8901C48.6539 33.4942 54.0827 38.5131 67.9107 38.4107C76.2074 38.4107 86.4504 35.5427 99.1516 28.9873C102.634 34.9282 107.448 38.3083 115.54 38.3083C127.32 38.3083 138.382 32.982 149.444 26.1192C152.62 24.2755 153.746 23.0463 153.644 22.2269L153.337 17.4127Z" fill="white"/>
<path fill-rule="evenodd" clip-rule="evenodd" d="M25.3 69.9591C27.7584 60.5356 30.8313 51.1121 34.826 41.6886H41.2791C45.069 51.2145 48.1418 60.5356 50.7026 69.9591H44.4544C43.7374 67.3984 43.1228 64.8377 42.4058 62.2769H32.3677C31.958 64.8718 31.6165 67.4325 31.3434 69.9591H25.3ZM32.8798 59.921H41.6887C40.1864 54.663 38.4452 49.405 36.4649 44.1469C34.9284 49.3708 33.8017 54.6971 32.8798 59.921ZM53.2633 65.3498C55.3119 67.1935 57.6678 68.2178 59.7164 68.2178C61.9698 68.2178 62.8917 66.8862 62.8917 65.3498C62.8917 60.7405 52.956 62.072 52.956 55.0044C52.956 51.2145 55.6192 48.8586 60.7407 48.8586C62.8917 48.8586 65.145 49.2684 66.7839 49.7805L66.1694 53.468C64.6329 51.9315 62.482 51.0097 60.7407 51.0097C58.7945 51.0097 57.8726 52.2388 57.8726 53.7752C57.8726 58.0773 67.9107 56.9505 67.9107 64.0182C67.9107 68.0129 65.145 70.4713 59.6139 70.4713C57.3604 70.4713 54.7997 70.0615 52.7512 69.3445L53.2633 65.3498ZM88.6014 67.7057C86.348 69.5494 83.4799 70.4713 80.4071 70.4713C73.8516 70.4713 70.4715 66.4765 70.4715 59.8186C70.4715 52.6485 74.0565 48.7562 80.3047 48.7562C86.0407 48.7562 89.1135 52.2388 89.1135 58.0773C89.1135 58.6919 89.0111 59.4089 89.0111 59.921H76.0025C76.105 65.1449 77.6414 68.0129 81.5338 68.0129C83.6848 68.0129 85.7334 67.1935 87.8844 65.5546L88.6014 67.7057ZM76.0025 57.77H83.6847C83.7872 53.468 82.558 51.0097 80.0997 51.0097C77.539 51.0097 76.2074 53.3655 76.0025 57.77ZM110.419 67.7057C108.063 69.447 105.297 70.4713 102.225 70.4713C95.5666 70.4713 92.1864 66.4765 92.1864 59.7162C92.1864 52.6486 95.7714 48.7562 102.02 48.7562C107.756 48.7562 110.829 52.2388 110.829 58.0773C110.829 58.6919 110.829 59.4089 110.726 59.921H97.7176C97.8201 65.1449 99.3565 67.9105 103.249 67.9105C105.502 67.9105 107.551 67.1935 109.599 65.5546L110.419 67.7057ZM97.82 57.6676H105.502C105.707 53.468 104.478 51.0097 101.917 51.0097C99.3565 51.0097 98.0249 53.3656 97.82 57.6676ZM115.131 69.8567V49.2684H119.023L119.945 53.6728C121.276 50.6 122.813 48.7562 125.578 48.7562C126.09 48.7562 126.705 48.7562 127.012 48.8586V54.0826C126.295 53.5704 125.578 53.2631 124.759 53.2631C123.325 53.2631 122.096 54.185 120.559 56.4384V69.8567H115.131Z" fill="white"/>
</svg>
