<svg width="24" height="24" viewBox="0 0 24 24" fill="none" xmlns="http://www.w3.org/2000/svg">
<path d="M22 5.89911C21.2504 6.22649 20.4565 6.44114 19.644 6.53611C20.4968 6.03534 21.138 5.24121 21.448 4.30211C20.64 4.77244 19.7587 5.10371 18.841 5.28211C18.4545 4.87731 17.9897 4.55549 17.4748 4.33629C16.9598 4.11708 16.4056 4.00507 15.846 4.00711C13.58 4.00711 11.743 5.81711 11.743 8.04711C11.743 8.36311 11.779 8.67211 11.849 8.96711C10.2236 8.8898 8.63212 8.47451 7.17617 7.74775C5.72022 7.02098 4.43176 5.99869 3.393 4.74611C3.02883 5.36051 2.83742 6.06189 2.839 6.77611C2.8397 7.44407 3.00683 8.10134 3.32529 8.6885C3.64375 9.27566 4.1035 9.77422 4.663 10.1391C4.01248 10.1181 3.37602 9.94443 2.805 9.63211V9.68211C2.805 11.6401 4.22 13.2731 6.095 13.6451C5.74261 13.7386 5.37958 13.786 5.015 13.7861C4.75 13.7861 4.493 13.7611 4.242 13.7111C4.51008 14.519 5.02311 15.2234 5.70982 15.7264C6.39653 16.2295 7.22284 16.5062 8.074 16.5181C6.61407 17.6427 4.82182 18.2502 2.979 18.2451C2.647 18.2451 2.321 18.2251 2 18.1891C3.88125 19.3798 6.06259 20.0104 8.289 20.0071C15.836 20.0071 19.962 13.8501 19.962 8.51111L19.948 7.98811C20.7529 7.42178 21.4481 6.71395 22 5.89911Z" fill="white"/>
</svg>
