<?xml version="1.0" encoding="UTF-8"?><svg xmlns="http://www.w3.org/2000/svg" xmlns:xlink="http://www.w3.org/1999/xlink" version="1.1" id="Layer_1" x="0px" y="0px" viewBox="0 0 122.9 78.5" style="enable-background:new 0 0 122.9 78.5;" xml:space="preserve"><style type="text/css">.st0{fill-rule:evenodd;clip-rule:evenodd;fill:#6633CC;}</style><g><path class="st0" d="M50.6,17.2c-9.8-6.9-19.6-8.4-29.6-5.8c2.2-5.3,5.5-8.8,9.4-10.4c5.5-2.3,14.5-0.7,18.1,4.3 C50.2,7.8,51.2,11.6,50.6,17.2L50.6,17.2z M83.5,55.3c-0.3-1.1,0.4-2.2,1.6-2.5c1.1-0.3,2.2,0.4,2.5,1.5c0.5,2.3,1.5,4,2.7,5.3 c1.3,1.3,2.9,2.1,4.8,2.5c1.1,0.2,1.9,1.3,1.6,2.4s-1.3,1.9-2.4,1.6c-2.8-0.6-5.1-1.8-7-3.7C85.5,60.8,84.2,58.3,83.5,55.3 L83.5,55.3z M13.5,55.3c-0.3-1.1,0.4-2.2,1.6-2.5c1.1-0.3,2.2,0.4,2.5,1.5c0.5,2.3,1.5,4,2.7,5.3c1.3,1.3,2.9,2.1,4.8,2.5 c1.1,0.2,1.9,1.3,1.6,2.4c-0.2,1.1-1.3,1.9-2.4,1.6c-2.8-0.6-5.1-1.8-7-3.7C15.6,60.8,14.3,58.3,13.5,55.3L13.5,55.3z M61.3,47.7 c2.8,0,5.1,2.2,5.1,4.9s-2.3,4.9-5.1,4.9c-2.8,0-5.1-2.2-5.1-4.9C56.2,49.9,58.5,47.7,61.3,47.7L61.3,47.7z M26.7,34.6 c10,0,18.1,7.9,18.1,17.6c0,9.7-8.1,17.6-18.1,17.6S8.5,61.9,8.5,52.2C8.6,42.5,16.6,34.6,26.7,34.6L26.7,34.6z M96.6,34.6 c10,0,18.1,7.9,18.1,17.6c0,9.7-8.1,17.6-18.1,17.6s-18.1-7.9-18.1-17.6S86.6,34.6,96.6,34.6L96.6,34.6z M72.3,17.2 c9.8-6.9,19.6-8.4,29.6-5.8C99.7,6.1,96.4,2.7,92.5,1C87-1.3,78,0.4,74.5,5.3C72.6,7.8,71.7,11.6,72.3,17.2L72.3,17.2z M107.6,17.4 c-3.4-3.5-9-5.1-16.6-4.8c-8.7,0.4-17.9,4.1-20.8,12.3c-2.5-5.4-14.9-5.4-17.3,0C49.8,16.7,40.6,13,32,12.6 c-7.7-0.3-13.2,1.3-16.6,4.8C10.5,23.9,1,40.7,0.2,49c-3.3,33.5,44.8,41.9,52.5,7.3c4.4,7.8,13.3,7.8,17.6,0 C78,90.9,126,82.5,122.7,49C121.9,40.7,112.4,23.9,107.6,17.4L107.6,17.4z"/></g></svg>