<svg width="1440" height="29" viewBox="0 0 1440 29" fill="none" xmlns="http://www.w3.org/2000/svg">
<g opacity="0.88">
<path d="M5.29288 3.22999L-6.15311 -7L-17.736 3.22999L-29.1668 -7L-40.7497 3.22999L-52.3325 -7L-63.9154 3.22999L-75.3615 -7L-86.9443 3.22999L-98.3903 -7L-109.973 3.22999V13.46L-98.3903 3.22999L-86.9443 13.46L-75.3615 3.22999L-63.9154 13.46L-52.3325 3.22999L-40.7497 13.46L-29.1516 3.22999L-17.7207 13.46L-6.1379 3.22999L5.3081 13.46L16.8909 3.22999L28.4738 13.46V3.22999L16.8909 -7L5.29288 3.22999Z" fill="#7300CD"/>
<path d="M143.618 3.22999L132.172 -7L120.589 3.22999L109.159 -7L97.5757 3.22999L85.9929 -7L74.41 3.22999L62.964 -7L51.3811 3.22999L39.9351 -7L28.3523 3.22999V13.46L39.9351 3.22999L51.3811 13.46L62.964 3.22999L74.41 13.46L85.9929 3.22999L97.5757 13.46L109.174 3.22999L120.605 13.46L132.188 3.22999L143.634 13.46L155.216 3.22999L166.799 13.46V3.22999L155.216 -7L143.618 3.22999Z" fill="#7300CD"/>
<path d="M281.944 3.22999L270.498 -7L258.915 3.22999L247.484 -7L235.901 3.22999L224.318 -7L212.735 3.22999L201.289 -7L189.707 3.22999L178.261 -7L166.678 3.22999V13.46L178.261 3.22999L189.707 13.46L201.289 3.22999L212.735 13.46L224.318 3.22999L235.901 13.46L247.499 3.22999L258.93 13.46L270.513 3.22999L281.959 13.46L293.542 3.22999L305.125 13.46V3.22999L293.542 -7L281.944 3.22999Z" fill="#7300CD"/>
<path d="M420.269 3.22999L408.823 -7L397.24 3.22999L385.809 -7L374.227 3.22999L362.644 -7L351.061 3.22999L339.615 -7L328.032 3.22999L316.586 -7L305.003 3.22999V13.46L316.586 3.22999L328.032 13.46L339.615 3.22999L351.061 13.46L362.644 3.22999L374.227 13.46L385.825 3.22999L397.255 13.46L408.838 3.22999L420.284 13.46L431.867 3.22999L443.45 13.46V3.22999L431.867 -7L420.269 3.22999Z" fill="#7300CD"/>
<path d="M558.594 3.22999L547.148 -7L535.566 3.22999L524.135 -7L512.552 3.22999L500.969 -7L489.386 3.22999L477.94 -7L466.357 3.22999L454.911 -7L443.328 3.22999V13.46L454.911 3.22999L466.357 13.46L477.94 3.22999L489.386 13.46L500.969 3.22999L512.552 13.46L524.15 3.22999L535.581 13.46L547.164 3.22999L558.61 13.46L570.193 3.22999L581.775 13.46V3.22999L570.193 -7L558.594 3.22999Z" fill="#7300CD"/>
<path d="M696.92 3.22999L685.474 -7L673.891 3.22999L662.46 -7L650.877 3.22999L639.294 -7L627.712 3.22999L616.265 -7L604.683 3.22999L593.237 -7L581.654 3.22999V13.46L593.237 3.22999L604.683 13.46L616.265 3.22999L627.712 13.46L639.294 3.22999L650.877 13.46L662.475 3.22999L673.906 13.46L685.489 3.22999L696.935 13.46L708.518 3.22999L720.101 13.46V3.22999L708.518 -7L696.92 3.22999Z" fill="#7300CD"/>
<path d="M835.245 3.22999L823.799 -7L812.216 3.22999L800.786 -7L789.203 3.22999L777.62 -7L766.037 3.22999L754.591 -7L743.008 3.22999L731.562 -7L719.979 3.22999V13.46L731.562 3.22999L743.008 13.46L754.591 3.22999L766.037 13.46L777.62 3.22999L789.203 13.46L800.801 3.22999L812.232 13.46L823.814 3.22999L835.26 13.46L846.843 3.22999L858.426 13.46V3.22999L846.843 -7L835.245 3.22999Z" fill="#7300CD"/>
<path d="M973.571 3.22999L962.125 -7L950.542 3.22999L939.111 -7L927.528 3.22999L915.945 -7L904.362 3.22999L892.916 -7L881.333 3.22999L869.887 -7L858.305 3.22999V13.46L869.887 3.22999L881.333 13.46L892.916 3.22999L904.362 13.46L915.945 3.22999L927.528 13.46L939.126 3.22999L950.557 13.46L962.14 3.22999L973.586 13.46L985.169 3.22999L996.751 13.46V3.22999L985.169 -7L973.571 3.22999Z" fill="#7300CD"/>
<path d="M1111.9 3.22999L1100.45 -7L1088.87 3.22999L1077.44 -7L1065.85 3.22999L1054.27 -7L1042.69 3.22999L1031.24 -7L1019.66 3.22999L1008.21 -7L996.63 3.22999V13.46L1008.21 3.22999L1019.66 13.46L1031.24 3.22999L1042.69 13.46L1054.27 3.22999L1065.85 13.46L1077.45 3.22999L1088.88 13.46L1100.47 3.22999L1111.91 13.46L1123.49 3.22999L1135.08 13.46V3.22999L1123.49 -7L1111.9 3.22999Z" fill="#7300CD"/>
<path d="M1250.22 3.22999L1238.78 -7L1227.19 3.22999L1215.76 -7L1204.18 3.22999L1192.6 -7L1181.01 3.22999L1169.57 -7L1157.98 3.22999L1146.54 -7L1134.96 3.22999V13.46L1146.54 3.22999L1157.98 13.46L1169.57 3.22999L1181.01 13.46L1192.6 3.22999L1204.18 13.46L1215.78 3.22999L1227.21 13.46L1238.79 3.22999L1250.24 13.46L1261.82 3.22999L1273.4 13.46V3.22999L1261.82 -7L1250.22 3.22999Z" fill="#7300CD"/>
<path d="M1388.55 3.22999L1377.1 -7L1365.52 3.22999L1354.09 -7L1342.5 3.22999L1330.92 -7L1319.34 3.22999L1307.89 -7L1296.31 3.22999L1284.86 -7L1273.28 3.22999V13.46L1284.86 3.22999L1296.31 13.46L1307.89 3.22999L1319.34 13.46L1330.92 3.22999L1342.5 13.46L1354.1 3.22999L1365.53 13.46L1377.12 3.22999L1388.56 13.46L1400.14 3.22999L1411.73 13.46V3.22999L1400.14 -7L1388.55 3.22999Z" fill="#7300CD"/>
<path d="M1526.87 3.22999L1515.43 -7L1503.84 3.22999L1492.41 -7L1480.83 3.22999L1469.25 -7L1457.66 3.22999L1446.22 -7L1434.63 3.22999L1423.19 -7L1411.61 3.22999V13.46L1423.19 3.22999L1434.63 13.46L1446.22 3.22999L1457.66 13.46L1469.25 3.22999L1480.83 13.46L1492.43 3.22999L1503.86 13.46L1515.44 3.22999L1526.89 13.46L1538.47 3.22999L1550.05 13.46V3.22999L1538.47 -7L1526.87 3.22999Z" fill="#7300CD"/>
</g>
<g opacity="0.5">
<path d="M5.29288 18.23L-6.15311 8L-17.736 18.23L-29.1668 8L-40.7497 18.23L-52.3325 8L-63.9154 18.23L-75.3615 8L-86.9443 18.23L-98.3903 8L-109.973 18.23V28.46L-98.3903 18.23L-86.9443 28.46L-75.3615 18.23L-63.9154 28.46L-52.3325 18.23L-40.7497 28.46L-29.1516 18.23L-17.7207 28.46L-6.1379 18.23L5.3081 28.46L16.8909 18.23L28.4738 28.46V18.23L16.8909 8L5.29288 18.23Z" fill="#7300CD"/>
<path d="M143.618 18.23L132.172 8L120.589 18.23L109.159 8L97.5757 18.23L85.9929 8L74.41 18.23L62.964 8L51.3811 18.23L39.9351 8L28.3523 18.23V28.46L39.9351 18.23L51.3811 28.46L62.964 18.23L74.41 28.46L85.9929 18.23L97.5757 28.46L109.174 18.23L120.605 28.46L132.188 18.23L143.634 28.46L155.216 18.23L166.799 28.46V18.23L155.216 8L143.618 18.23Z" fill="#7300CD"/>
<path d="M281.944 18.23L270.498 8L258.915 18.23L247.484 8L235.901 18.23L224.318 8L212.735 18.23L201.289 8L189.707 18.23L178.261 8L166.678 18.23V28.46L178.261 18.23L189.707 28.46L201.289 18.23L212.735 28.46L224.318 18.23L235.901 28.46L247.499 18.23L258.93 28.46L270.513 18.23L281.959 28.46L293.542 18.23L305.125 28.46V18.23L293.542 8L281.944 18.23Z" fill="#7300CD"/>
<path d="M420.269 18.23L408.823 8L397.24 18.23L385.809 8L374.227 18.23L362.644 8L351.061 18.23L339.615 8L328.032 18.23L316.586 8L305.003 18.23V28.46L316.586 18.23L328.032 28.46L339.615 18.23L351.061 28.46L362.644 18.23L374.227 28.46L385.825 18.23L397.255 28.46L408.838 18.23L420.284 28.46L431.867 18.23L443.45 28.46V18.23L431.867 8L420.269 18.23Z" fill="#7300CD"/>
<path d="M558.594 18.23L547.148 8L535.566 18.23L524.135 8L512.552 18.23L500.969 8L489.386 18.23L477.94 8L466.357 18.23L454.911 8L443.328 18.23V28.46L454.911 18.23L466.357 28.46L477.94 18.23L489.386 28.46L500.969 18.23L512.552 28.46L524.15 18.23L535.581 28.46L547.164 18.23L558.61 28.46L570.193 18.23L581.775 28.46V18.23L570.193 8L558.594 18.23Z" fill="#7300CD"/>
<path d="M696.92 18.23L685.474 8L673.891 18.23L662.46 8L650.877 18.23L639.294 8L627.712 18.23L616.265 8L604.683 18.23L593.237 8L581.654 18.23V28.46L593.237 18.23L604.683 28.46L616.265 18.23L627.712 28.46L639.294 18.23L650.877 28.46L662.475 18.23L673.906 28.46L685.489 18.23L696.935 28.46L708.518 18.23L720.101 28.46V18.23L708.518 8L696.92 18.23Z" fill="#7300CD"/>
<path d="M835.245 18.23L823.799 8L812.216 18.23L800.786 8L789.203 18.23L777.62 8L766.037 18.23L754.591 8L743.008 18.23L731.562 8L719.979 18.23V28.46L731.562 18.23L743.008 28.46L754.591 18.23L766.037 28.46L777.62 18.23L789.203 28.46L800.801 18.23L812.232 28.46L823.814 18.23L835.26 28.46L846.843 18.23L858.426 28.46V18.23L846.843 8L835.245 18.23Z" fill="#7300CD"/>
<path d="M973.571 18.23L962.125 8L950.542 18.23L939.111 8L927.528 18.23L915.945 8L904.362 18.23L892.916 8L881.333 18.23L869.887 8L858.305 18.23V28.46L869.887 18.23L881.333 28.46L892.916 18.23L904.362 28.46L915.945 18.23L927.528 28.46L939.126 18.23L950.557 28.46L962.14 18.23L973.586 28.46L985.169 18.23L996.751 28.46V18.23L985.169 8L973.571 18.23Z" fill="#7300CD"/>
<path d="M1111.9 18.23L1100.45 8L1088.87 18.23L1077.44 8L1065.85 18.23L1054.27 8L1042.69 18.23L1031.24 8L1019.66 18.23L1008.21 8L996.63 18.23V28.46L1008.21 18.23L1019.66 28.46L1031.24 18.23L1042.69 28.46L1054.27 18.23L1065.85 28.46L1077.45 18.23L1088.88 28.46L1100.47 18.23L1111.91 28.46L1123.49 18.23L1135.08 28.46V18.23L1123.49 8L1111.9 18.23Z" fill="#7300CD"/>
<path d="M1250.22 18.23L1238.78 8L1227.19 18.23L1215.76 8L1204.18 18.23L1192.6 8L1181.01 18.23L1169.57 8L1157.98 18.23L1146.54 8L1134.96 18.23V28.46L1146.54 18.23L1157.98 28.46L1169.57 18.23L1181.01 28.46L1192.6 18.23L1204.18 28.46L1215.78 18.23L1227.21 28.46L1238.79 18.23L1250.24 28.46L1261.82 18.23L1273.4 28.46V18.23L1261.82 8L1250.22 18.23Z" fill="#7300CD"/>
<path d="M1388.55 18.23L1377.1 8L1365.52 18.23L1354.09 8L1342.5 18.23L1330.92 8L1319.34 18.23L1307.89 8L1296.31 18.23L1284.86 8L1273.28 18.23V28.46L1284.86 18.23L1296.31 28.46L1307.89 18.23L1319.34 28.46L1330.92 18.23L1342.5 28.46L1354.1 18.23L1365.53 28.46L1377.12 18.23L1388.56 28.46L1400.14 18.23L1411.73 28.46V18.23L1400.14 8L1388.55 18.23Z" fill="#7300CD"/>
<path d="M1526.87 18.23L1515.43 8L1503.84 18.23L1492.41 8L1480.83 18.23L1469.25 8L1457.66 18.23L1446.22 8L1434.63 18.23L1423.19 8L1411.61 18.23V28.46L1423.19 18.23L1434.63 28.46L1446.22 18.23L1457.66 28.46L1469.25 18.23L1480.83 28.46L1492.43 18.23L1503.86 28.46L1515.44 18.23L1526.89 28.46L1538.47 18.23L1550.05 28.46V18.23L1538.47 8L1526.87 18.23Z" fill="#7300CD"/>
</g>
</svg>
