<svg width="24" height="24" viewBox="0 0 24 24" fill="none" xmlns="http://www.w3.org/2000/svg">
<path d="M16.017 1.99219H7.947C6.37015 1.99404 4.85844 2.62133 3.74353 3.73642C2.62862 4.85152 2.00159 6.36334 2 7.94019L2 16.0102C2.00185 17.587 2.62914 19.0988 3.74424 20.2137C4.85933 21.3286 6.37115 21.9556 7.948 21.9572H16.018C17.5948 21.9553 19.1066 21.328 20.2215 20.213C21.3364 19.0979 21.9634 17.586 21.965 16.0092V7.93919C21.9631 6.36234 21.3359 4.85062 20.2208 3.73572C19.1057 2.62081 17.5938 1.99378 16.017 1.99219V1.99219ZM19.957 16.0092C19.957 16.5266 19.8551 17.0389 19.6571 17.517C19.4591 17.995 19.1689 18.4293 18.803 18.7952C18.4371 19.1611 18.0028 19.4513 17.5248 19.6493C17.0468 19.8473 16.5344 19.9492 16.017 19.9492H7.947C6.90222 19.9489 5.90032 19.5337 5.16165 18.7948C4.42297 18.056 4.008 17.054 4.008 16.0092V7.93919C4.00827 6.89441 4.42349 5.89251 5.16235 5.15383C5.90122 4.41516 6.90322 4.00019 7.948 4.00019H16.018C17.0628 4.00045 18.0647 4.41568 18.8034 5.15454C19.542 5.8934 19.957 6.89541 19.957 7.94019V16.0102V16.0092Z" fill="white"/>
<path d="M11.9818 6.81128C10.6133 6.8134 9.30136 7.35806 8.33372 8.32589C7.36609 9.29371 6.82168 10.6057 6.81982 11.9743C6.82141 13.3432 7.36585 14.6556 8.33372 15.6237C9.3016 16.5917 10.6139 17.1364 11.9828 17.1383C13.3519 17.1367 14.6645 16.5921 15.6326 15.624C16.6007 14.6559 17.1452 13.3434 17.1468 11.9743C17.1447 10.6054 16.5998 9.29316 15.6315 8.32547C14.6633 7.35778 13.3507 6.8136 11.9818 6.81228V6.81128ZM11.9818 15.1303C11.1451 15.1303 10.3426 14.7979 9.7509 14.2062C9.15922 13.6145 8.82682 12.812 8.82682 11.9753C8.82682 11.1385 9.15922 10.336 9.7509 9.74436C10.3426 9.15268 11.1451 8.82028 11.9818 8.82028C12.8186 8.82028 13.6211 9.15268 14.2127 9.74436C14.8044 10.336 15.1368 11.1385 15.1368 11.9753C15.1368 12.812 14.8044 13.6145 14.2127 14.2062C13.6211 14.7979 12.8186 15.1303 11.9818 15.1303Z" fill="white"/>
<path d="M17.1559 8.08728C17.8391 8.08728 18.3929 7.53346 18.3929 6.85028C18.3929 6.1671 17.8391 5.61328 17.1559 5.61328C16.4728 5.61328 15.9189 6.1671 15.9189 6.85028C15.9189 7.53346 16.4728 8.08728 17.1559 8.08728Z" fill="white"/>
</svg>
