<svg width="24" height="24" viewBox="0 0 24 24" fill="none" xmlns="http://www.w3.org/2000/svg">
<path d="M21.959 13.7111V21.0901H17.681V14.2051C17.681 12.4751 17.062 11.2951 15.514 11.2951C14.332 11.2951 13.628 12.0911 13.319 12.8601C13.206 13.1351 13.177 13.5181 13.177 13.9031V21.0901H8.897C8.897 21.0901 8.955 9.43007 8.897 8.22107H13.177V10.0451L13.149 10.0871H13.177V10.0451C13.745 9.17007 14.76 7.91907 17.033 7.91907C19.848 7.91907 21.959 9.75907 21.959 13.7111ZM4.421 2.01807C2.958 2.01807 2 2.97807 2 4.24107C2 5.47607 2.93 6.46507 4.365 6.46507H4.393C5.886 6.46507 6.813 5.47607 6.813 4.24107C6.787 2.97807 5.887 2.01807 4.422 2.01807H4.421ZM2.254 21.0901H6.532V8.22107H2.254V21.0901Z" fill="white"/>
</svg>
